<svg width="189" height="38" viewBox="0 0 189 38" fill="none" xmlns="http://www.w3.org/2000/svg">
<g clip-path="url(#clip0_7_78)">
<path d="M11.9321 16.099L19.2191 8.81487L26.5091 16.1049L30.7468 11.8642L19.2191 0.333565L7.69141 11.8613L11.9321 16.099Z" fill="#F3BA2F"/>
<path d="M4.69732 14.8547L0.458252 19.0937L4.69732 23.3328L8.93638 19.0937L4.69732 14.8547Z" fill="#F3BA2F"/>
<path d="M11.9321 22.088L19.2192 29.3751L26.5092 22.0851L30.7498 26.3198L30.7469 26.3227L19.2192 37.8534L7.69147 26.3287L7.68555 26.3227L11.9321 22.088Z" fill="#F3BA2F"/>
<path d="M33.7371 14.8551L29.498 19.0942L33.7371 23.3333L37.9762 19.0942L33.7371 14.8551Z" fill="#F3BA2F"/>
<path d="M23.5191 19.092L19.2192 14.7891L16.0394 17.9689L15.672 18.3334L14.9193 19.0861L14.9133 19.095L14.9193 19.1009L19.2192 23.3979L23.5191 19.095H23.5221L23.5191 19.092Z" fill="#F3BA2F"/>
<path d="M44.5891 9.42534H53.8113C56.099 9.42534 57.8297 10.0121 59.0032 11.1886C59.91 12.0983 60.3634 13.2274 60.3634 14.5698V14.6261C60.3634 15.1951 60.2923 15.6959 60.153 16.1316C60.0107 16.5672 59.8241 16.9613 59.587 17.311C59.3529 17.6607 59.0802 17.9689 58.7691 18.2356C58.4579 18.5023 58.1231 18.7275 57.7674 18.9172C58.9172 19.3528 59.8241 19.9455 60.4849 20.6952C61.1457 21.445 61.4747 22.4822 61.4747 23.8068V23.8631C61.4747 24.7729 61.2998 25.5671 60.9502 26.2516C60.6005 26.9332 60.0997 27.5022 59.4447 27.9556C58.7928 28.412 58.0075 28.7498 57.0888 28.978C56.1702 29.2062 55.1537 29.3188 54.0395 29.3188H44.5891V9.42534V9.42534ZM52.8867 17.4681C53.8528 17.4681 54.6203 17.3021 55.1893 16.9702C55.7582 16.6383 56.0427 16.1019 56.0427 15.364V15.3077C56.0427 14.6439 55.7968 14.1372 55.3048 13.7875C54.8129 13.4378 54.1017 13.26 53.1741 13.26H48.8505V17.4651C48.8505 17.4681 52.8867 17.4681 52.8867 17.4681ZM54.0543 25.4841C55.0203 25.4841 55.779 25.3093 56.3272 24.9596C56.8755 24.6099 57.151 24.0646 57.151 23.3238V23.2675C57.151 22.6037 56.8962 22.0791 56.3835 21.6909C55.8709 21.3027 55.047 21.1101 53.9091 21.1101H48.8505V25.4871L54.0543 25.4841Z" fill="white"/>
<path d="M66.9629 9.42532H71.3399V29.3217H66.9629V9.42532Z" fill="white"/>
<path d="M77.9719 9.42534H82.0081L91.331 21.6761V9.42534H95.6517V29.3217H91.9296L82.2926 16.6739V29.3217H77.9719V9.42534Z" fill="white"/>
<path d="M108.901 9.2831H112.937L121.466 29.3217H116.891L115.071 24.8588H106.658L104.838 29.3217H100.375L108.901 9.2831ZM113.506 20.9945L110.863 14.5432L108.22 20.9945H113.506Z" fill="white"/>
<path d="M126.19 9.42534H130.226L139.549 21.6761V9.42534H143.869V29.3217H140.147L130.51 16.6739V29.3217H126.19V9.42534Z" fill="white"/>
<path d="M159.623 29.6625C158.162 29.6625 156.808 29.3958 155.557 28.8683C154.307 28.3408 153.228 27.6118 152.318 26.6932C151.408 25.7745 150.697 24.6899 150.187 23.4393C149.675 22.1888 149.42 20.8523 149.42 19.4298V19.3735C149.42 17.9511 149.675 16.6205 150.187 15.3788C150.7 14.1372 151.408 13.0496 152.318 12.1102C153.228 11.1708 154.318 10.4329 155.587 9.89355C156.855 9.3542 158.26 9.08453 159.795 9.08453C160.722 9.08453 161.57 9.16158 162.337 9.31272C163.105 9.46385 163.801 9.67425 164.427 9.938C165.052 10.2047 165.63 10.5248 166.16 10.9041C166.691 11.2834 167.183 11.7012 167.639 12.1546L164.853 15.367C164.074 14.6647 163.286 14.1164 162.48 13.7193C161.674 13.3222 160.77 13.1237 159.765 13.1237C158.933 13.1237 158.159 13.2837 157.448 13.6067C156.737 13.9297 156.126 14.3742 155.613 14.9432C155.104 15.5122 154.704 16.1701 154.419 16.9198C154.135 17.6696 153.992 18.4697 153.992 19.3202V19.3765C153.992 20.23 154.135 21.036 154.419 21.7917C154.704 22.5503 155.095 23.2141 155.599 23.7801C156.099 24.3491 156.707 24.7995 157.418 25.1315C158.129 25.4634 158.912 25.6293 159.762 25.6293C160.9 25.6293 161.86 25.4219 162.646 25.004C163.431 24.5891 164.213 24.0202 164.99 23.3001L167.775 26.1153C167.263 26.6665 166.732 27.1584 166.184 27.5941C165.636 28.0297 165.031 28.4031 164.379 28.7172C163.724 29.0283 163.01 29.2684 162.234 29.4284C161.46 29.5825 160.589 29.6625 159.623 29.6625Z" fill="white"/>
<path d="M172.932 9.42532H187.912V13.3193H177.252V17.3554H186.632V21.2494H177.252V25.4278H188.054V29.3217H172.932V9.42532Z" fill="white"/>
</g>
<defs>
<clipPath id="clip0_7_78">
<rect width="187.596" height="37.5199" fill="white" transform="translate(0.457764 0.333557)"/>
</clipPath>
</defs>
</svg>
