<svg width="1605" height="835" viewBox="0 0 1605 835" fill="none" xmlns="http://www.w3.org/2000/svg">
<path d="M8.37154 781.598L7.47236 774.105L1.67153 770.568L8.32814 769.207L11.7148 762.463L12.614 769.956L18.4148 773.493L11.7582 774.854L8.37154 781.598Z" fill="#7879F1"/>
<path d="M181.031 20.3643L180.142 12.9563L174.407 9.4591L180.988 8.11376L184.337 1.44609L185.226 8.85407L190.961 12.3513L184.38 13.6966L181.031 20.3643Z" fill="#7879F1"/>
<path d="M792.264 9.22158L791.364 16.7145L785.564 20.2518L792.22 21.6126L795.607 28.3567L796.506 20.8638L802.307 17.3265L795.65 15.9657L792.264 9.22158Z" fill="#7879F1"/>
<path d="M1592.37 31.4627L1591.47 38.9556L1585.67 42.4929L1592.33 43.8537L1595.71 50.5978L1596.61 43.1049L1602.41 39.5676L1595.76 38.2068L1592.37 31.4627Z" fill="#7879F1"/>
<path d="M1209.92 814.435L1209.03 821.843L1203.3 825.34L1209.88 826.686L1213.23 833.353L1214.12 825.945L1219.85 822.448L1213.27 821.103L1209.92 814.435Z" fill="#7879F1"/>
<path d="M1060.06 646.918L1059.37 652.669L1054.92 655.383L1060.02 656.428L1062.62 661.604L1063.31 655.853L1067.77 653.138L1062.66 652.094L1060.06 646.918Z" fill="#7879F1"/>
<path d="M689.791 700.536L688.847 708.404L682.755 712.118L689.745 713.547L693.301 720.629L694.246 712.761L700.337 709.047L693.347 707.618L689.791 700.536Z" fill="#7879F1"/>
</svg>
