<svg width="295" height="16" viewBox="0 0 295 16" fill="none" xmlns="http://www.w3.org/2000/svg">
<path d="M287.839 12.123C287.126 12.5444 286.889 13.4642 287.311 14.1775C287.732 14.8907 288.652 15.1273 289.365 14.7059L287.839 12.123ZM288.602 13.4145C289.365 14.7059 289.366 14.7054 289.367 14.7049C289.367 14.7046 289.368 14.704 289.369 14.7034C289.371 14.7023 289.373 14.701 289.376 14.6994C289.382 14.6961 289.389 14.6918 289.397 14.6866C289.415 14.676 289.439 14.6613 289.469 14.6427C289.53 14.6055 289.614 14.5525 289.718 14.4849C289.927 14.3499 290.216 14.1554 290.549 13.9115C291.207 13.4298 292.076 12.727 292.835 11.8819C293.572 11.0616 294.337 9.96229 294.559 8.684C294.805 7.27236 294.348 5.87272 293.072 4.71205C291.881 3.62834 290 2.76375 287.343 2.08644C284.658 1.40172 281.035 0.873051 276.22 0.563101C266.588 -0.056929 252.013 0.188575 230.275 1.91972L230.513 4.91025C252.193 3.18373 266.604 2.95034 276.027 3.5569C280.74 3.86025 284.162 4.37125 286.602 4.99342C289.071 5.62299 290.395 6.33249 291.053 6.93093C291.626 7.4524 291.661 7.84296 291.604 8.1704C291.524 8.6312 291.193 9.21992 290.603 9.87728C290.035 10.5099 289.345 11.0745 288.777 11.4909C288.497 11.6959 288.255 11.8581 288.086 11.9676C288.002 12.0222 287.937 12.0633 287.894 12.0897C287.872 12.1028 287.857 12.1123 287.848 12.1179C287.843 12.1208 287.84 12.1226 287.838 12.1235C287.838 12.1239 287.837 12.1241 287.838 12.124C287.838 12.124 287.838 12.1237 287.838 12.1237C287.839 12.1234 287.839 12.123 288.602 13.4145ZM230.275 1.91972C186.887 5.37482 129.564 8.05931 83.0737 9.88019C59.8315 10.7905 39.3023 11.4848 24.5837 11.9514C17.2245 12.1848 11.3181 12.3612 7.25169 12.4793C5.2185 12.5384 3.64535 12.5828 2.58059 12.6125C2.0482 12.6274 1.64293 12.6385 1.37081 12.646C1.23475 12.6497 1.13199 12.6525 1.06326 12.6544C1.02892 12.6553 1.00304 12.656 0.985815 12.6564C0.9772 12.6567 0.970724 12.6569 0.966417 12.657C0.964278 12.657 0.962659 12.6571 0.96159 12.6571C0.960521 12.6571 0.960001 12.6571 1.00024 14.1566C1.04049 15.6561 1.04107 15.656 1.04217 15.656C1.04327 15.656 1.04492 15.6559 1.04709 15.6559C1.05148 15.6558 1.05799 15.6556 1.0667 15.6554C1.08405 15.6549 1.11005 15.6542 1.14453 15.6533C1.21351 15.6514 1.31652 15.6486 1.45286 15.6449C1.72549 15.6374 2.13128 15.6262 2.66422 15.6114C3.73008 15.5816 5.30439 15.5371 7.33877 15.4781C11.4076 15.3599 17.3167 15.1834 24.6788 14.9499C39.4029 14.4831 59.9398 13.7886 83.1911 12.8779C129.687 11.0568 187.061 8.37046 230.513 4.91025L230.275 1.91972Z" fill="#A5A6F6"/>
</svg>
